{"title":"RWBY.S02E05.Extracurricular.1080p.BluRay.x264-orangebirds","uid":11955276,"size":590515750,"categoryP":"video","categoryS":"hd___tv_shows","magnet":"?xt=urn:btih:540006621b48b267be4824599b98abff0eb453d7&amp;dn=RWBY.S02E05.Extracurricular.1080p.BluRay.x264-orangebirds&amp;tr=udp%3A%2F%2Ftracker.openbittorrent.com%3A80&amp;tr=udp%3A%2F%2Fopen.demonii.com%3A1337&amp;tr=udp%3A%2F%2Ftracker.coppersurfer.tk%3A6969&amp;tr=udp%3A%2F%2Fexodus.desync.com%3A6969","seeders":2,"leechers":0,"uploader":"orangebirds","files":1,"time":1432380649,"description":"RWBY.S02E05.Extracurricular.1080p.BluRay.x264-orangebirds\n\nSource : RWBY.S02E05.1080p.BluRay.x264-SADPANDA\n\nVideo converted using x264 with setting CRF 18 preset very slow\nAudio in AC3 5.1\n\nPlease help me seed!\n\nGeneral\nUnique ID                                : 251053833779123994778782302625220467255 (0xBCDF35A92FF1C6DB8A54E8DB75471A37)\nComplete name                            : E:\\RWBY.S02E05.Extracurricular.1080p.BluRay.x264-orangebirds.mkv\nFormat                                   : Matroska\nFormat version                           : Version 2\nFile size                                : 563 MiB\nDuration                                 : 12mn 30s\nOverall bit rate                         : 6 293 Kbps\nEncoded date                             : UTC 2015-02-13 22:22:18\nWriting application                      : mkvmerge v7.6.0 ('Garden of Dreams') 32bit built on Feb  8 2015 12:51:39\nWriting library                          : libebml v1.3.1 + libmatroska v1.4.2\nDURATION                                 : 00:12:30.592000000\nNUMBER_OF_FRAMES                         : 23456\nNUMBER_OF_BYTES                          : 42033152\n_STATISTICS_WRITING_APP                  : mkvmerge v7.6.0 ('Garden of Dreams') 32bit built on Feb  8 2015 12:51:39\n_STATISTICS_WRITING_DATE_UTC             : 2015-02-13 22:22:18\n_STATISTICS_TAGS                         : BPS DURATION NUMBER_OF_FRAMES NUMBER_OF_BYTES\n\nVideo\nID                                       : 1\nFormat                                   : AVC\nFormat/Info                              : Advanced Video Codec\nFormat profile                           : &lt;a class=&quot;__cf_email__&quot; href=&quot;/cdn-cgi/l/email-protection&quot; data-cfemail=&quot;eca4858b84aca0d8c2dd&quot;&gt;[email&amp;#160;protected]&lt;/a&gt;&lt;script data-cfhash='f9e31' type=&quot;text/javascript&quot;&gt;\n/* &lt;![CDATA[ */!function(){try{var t=&quot;currentScript&quot;in document?document.currentScript:function(){for(var t=document.getElementsByTagName(&quot;script&quot;),e=t.length;e--;)if(t[e].getAttribute(&quot;data-cfhash&quot;))return t[e]}();if(t&amp;&amp;t.previousSibling){var e,r,n,i,c=t.previousSibling,a=c.getAttribute(&quot;data-cfemail&quot;);if(a){for(e=&quot;&quot;,r=parseInt(a.substr(0,2),16),n=2;a.length-n;n+=2)i=parseInt(a.substr(n,2),16)^r,e+=String.fromCharCode(i);e=document.createTextNode(e),c.parentNode.replaceChild(e,c)}t.parentNode.removeChild(t);}}catch(u){}}()/* ]]&gt; */&lt;/script&gt;\nFormat settings, CABAC                   : Yes\nFormat settings, ReFrames                : 4 frames\nCodec ID                                 : V_MPEG4/ISO/AVC\nDuration                                 : 12mn 30s\nBit rate                                 : 5 720 Kbps\nWidth                                    : 1 920 pixels\nHeight                                   : 1 080 pixels\nDisplay aspect ratio                     : 16:9\nFrame rate mode                          : Constant\nFrame rate                               : 29.970 fps\nColor space                              : YUV\nChroma subsampling                       : 4:2:0\nBit depth                                : 8 bits\nScan type                                : Progressive\nBits/(Pixel*Frame)                       : 0.092\nStream size                              : 512 MiB (91%)\nWriting library                          : x264 core 144 r2525 40bb568\nEncoding settings                        : cabac=1 / ref=4 / deblock=1:0:0 / analyse=0x3:0x133 / me=umh / subme=10 / psy=1 / psy_rd=1.00:0.00 / mixed_ref=1 / me_range=24 / chroma_me=1 / trellis=2 / 8x8dct=1 / cqm=0 / deadzone=21,11 / fast_pskip=1 / chroma_qp_offset=-2 / threads=6 / lookahead_threads=1 / sliced_threads=0 / nr=0 / decimate=1 / interlaced=0 / bluray_compat=0 / constrained_intra=0 / bframes=8 / b_pyramid=2 / b_adapt=2 / b_bias=0 / direct=3 / weightb=1 / open_gop=0 / weightp=2 / keyint=300 / keyint_min=29 / scenecut=40 / intra_refresh=0 / rc_lookahead=60 / rc=crf / mbtree=1 / crf=18.0 / qcomp=0.60 / qpmin=0 / qpmax=69 / qpstep=4 / vbv_maxrate=62500 / vbv_bufsize=78125 / crf_max=0.0 / nal_hrd=none / filler=0 / ip_ratio=1.40 / aq=1:1.00\nDefault                                  : Yes\nForced                                   : No\n\nAudio\nID                                       : 2\nFormat                                   : AC-3\nFormat/Info                              : Audio Coding 3\nMode extension                           : CM (complete main)\nFormat settings, Endianness              : Big\nCodec ID                                 : A_AC3\nDuration                                 : 12mn 30s\nBit rate mode                            : Constant\nBit rate                                 : 448 Kbps\nChannel(s)                               : 6 channels\nChannel positions                        : Front: L C R, Side: L R, LFE\nSampling rate                            : 48.0 KHz\nBit depth                                : 16 bits\nCompression mode                         : Lossy\nStream size                              : 40.1 MiB (7%)\nLanguage                                 : English\nDefault                                  : Yes\nForced                                   : No","torrent":{"xt":"urn:btih:540006621b48b267be4824599b98abff0eb453d7","amp;dn":"RWBY.S02E05.Extracurricular.1080p.BluRay.x264-orangebirds","amp;tr":["udp%3A%2F%2Ftracker.openbittorrent.com%3A80","udp%3A%2F%2Fopen.demonii.com%3A1337","udp%3A%2F%2Ftracker.coppersurfer.tk%3A6969","udp%3A%2F%2Fexodus.desync.com%3A6969"],"infoHash":"540006621b48b267be4824599b98abff0eb453d7","infoHashBuffer":{"type":"Buffer","data":[84,0,6,98,27,72,178,103,190,72,36,89,155,152,171,255,14,180,83,215]},"announce":[],"urlList":[]}}